<mxfile host="app.diagrams.net" modified="2024-05-21T09:53:29.764Z" agent="Mozilla/5.0 (X11; Linux x86_64) AppleWebKit/537.36 (KHTML, like Gecko) Chrome/121.0.0.0 Safari/537.36" etag="KjqfZo01605NOpZMLzv0" version="24.4.4" type="github">
  <diagram name="Page-1" id="N6KQSWOwtX5DQ-n1DxSg">
    <mxGraphModel dx="1434" dy="689" grid="1" gridSize="10" guides="1" tooltips="1" connect="1" arrows="1" fold="1" page="1" pageScale="1" pageWidth="827" pageHeight="1169" math="0" shadow="0">
      <root>
        <mxCell id="0" />
        <mxCell id="1" parent="0" />
        <mxCell id="wWI_pdkl9tOV192v9g_S-1" style="edgeStyle=orthogonalEdgeStyle;rounded=0;orthogonalLoop=1;jettySize=auto;html=1;" edge="1" parent="1" source="wWI_pdkl9tOV192v9g_S-3">
          <mxGeometry relative="1" as="geometry">
            <mxPoint x="410" y="230" as="targetPoint" />
          </mxGeometry>
        </mxCell>
        <mxCell id="wWI_pdkl9tOV192v9g_S-2" style="edgeStyle=orthogonalEdgeStyle;rounded=0;orthogonalLoop=1;jettySize=auto;html=1;" edge="1" parent="1" source="wWI_pdkl9tOV192v9g_S-3">
          <mxGeometry relative="1" as="geometry">
            <mxPoint x="185" y="310" as="targetPoint" />
          </mxGeometry>
        </mxCell>
        <mxCell id="wWI_pdkl9tOV192v9g_S-3" value="&lt;div style=&quot;color: rgb(59, 59, 59); background-color: rgb(250, 250, 250); font-family: Menlo, Monaco, Consolas, &amp;quot;Ubuntu Mono&amp;quot;, &amp;quot;Source Code Pro&amp;quot;, monospace, &amp;quot;Droid Sans Mono&amp;quot;, &amp;quot;monospace&amp;quot;, monospace; font-size: 13px; line-height: 20px; white-space: pre;&quot;&gt;&lt;span style=&quot;color: #795e26;&quot;&gt;process_tags&lt;/span&gt;&lt;/div&gt;" style="rounded=0;whiteSpace=wrap;html=1;" vertex="1" parent="1">
          <mxGeometry x="65" y="200" width="240" height="60" as="geometry" />
        </mxCell>
        <mxCell id="wWI_pdkl9tOV192v9g_S-4" style="edgeStyle=orthogonalEdgeStyle;rounded=0;orthogonalLoop=1;jettySize=auto;html=1;" edge="1" parent="1" source="wWI_pdkl9tOV192v9g_S-5">
          <mxGeometry relative="1" as="geometry">
            <mxPoint x="185" y="200" as="targetPoint" />
          </mxGeometry>
        </mxCell>
        <mxCell id="wWI_pdkl9tOV192v9g_S-5" value="&lt;div style=&quot;color: rgb(59, 59, 59); background-color: rgb(250, 250, 250); font-family: Menlo, Monaco, Consolas, &amp;quot;Ubuntu Mono&amp;quot;, &amp;quot;Source Code Pro&amp;quot;, monospace, &amp;quot;Droid Sans Mono&amp;quot;, &amp;quot;monospace&amp;quot;, monospace; font-size: 13px; line-height: 20px; white-space: pre;&quot;&gt;&lt;span style=&quot;color: #795e26;&quot;&gt;filter_and_store_data&lt;/span&gt;&lt;/div&gt;" style="rounded=0;whiteSpace=wrap;html=1;" vertex="1" parent="1">
          <mxGeometry x="70" y="80" width="230" height="60" as="geometry" />
        </mxCell>
        <mxCell id="wWI_pdkl9tOV192v9g_S-6" value="&lt;div style=&quot;color: rgb(59, 59, 59); background-color: rgb(250, 250, 250); font-family: Menlo, Monaco, Consolas, &amp;quot;Ubuntu Mono&amp;quot;, &amp;quot;Source Code Pro&amp;quot;, monospace, &amp;quot;Droid Sans Mono&amp;quot;, &amp;quot;monospace&amp;quot;, monospace; font-size: 13px; line-height: 20px; white-space: pre;&quot;&gt;&lt;div style=&quot;line-height: 20px;&quot;&gt;&lt;span style=&quot;color: #795e26;&quot;&gt;adding_tags&lt;/span&gt;&lt;/div&gt;&lt;/div&gt;" style="rounded=0;whiteSpace=wrap;html=1;" vertex="1" parent="1">
          <mxGeometry x="414" y="200" width="156" height="60" as="geometry" />
        </mxCell>
        <mxCell id="wWI_pdkl9tOV192v9g_S-7" style="edgeStyle=orthogonalEdgeStyle;rounded=0;orthogonalLoop=1;jettySize=auto;html=1;entryX=0.5;entryY=0;entryDx=0;entryDy=0;" edge="1" parent="1" source="wWI_pdkl9tOV192v9g_S-14" target="wWI_pdkl9tOV192v9g_S-17">
          <mxGeometry relative="1" as="geometry" />
        </mxCell>
        <mxCell id="wWI_pdkl9tOV192v9g_S-8" style="edgeStyle=orthogonalEdgeStyle;rounded=0;orthogonalLoop=1;jettySize=auto;html=1;" edge="1" parent="1" source="wWI_pdkl9tOV192v9g_S-14" target="wWI_pdkl9tOV192v9g_S-18">
          <mxGeometry relative="1" as="geometry">
            <mxPoint x="480" y="900" as="targetPoint" />
          </mxGeometry>
        </mxCell>
        <mxCell id="wWI_pdkl9tOV192v9g_S-9" style="edgeStyle=orthogonalEdgeStyle;rounded=0;orthogonalLoop=1;jettySize=auto;html=1;" edge="1" parent="1" source="wWI_pdkl9tOV192v9g_S-14" target="wWI_pdkl9tOV192v9g_S-19">
          <mxGeometry relative="1" as="geometry" />
        </mxCell>
        <mxCell id="wWI_pdkl9tOV192v9g_S-10" style="edgeStyle=orthogonalEdgeStyle;rounded=0;orthogonalLoop=1;jettySize=auto;html=1;entryX=0.5;entryY=0;entryDx=0;entryDy=0;" edge="1" parent="1" source="wWI_pdkl9tOV192v9g_S-14" target="wWI_pdkl9tOV192v9g_S-20">
          <mxGeometry relative="1" as="geometry">
            <mxPoint x="670" y="911" as="targetPoint" />
          </mxGeometry>
        </mxCell>
        <mxCell id="wWI_pdkl9tOV192v9g_S-11" style="edgeStyle=orthogonalEdgeStyle;rounded=0;orthogonalLoop=1;jettySize=auto;html=1;" edge="1" parent="1" source="wWI_pdkl9tOV192v9g_S-14" target="wWI_pdkl9tOV192v9g_S-16">
          <mxGeometry relative="1" as="geometry" />
        </mxCell>
        <mxCell id="wWI_pdkl9tOV192v9g_S-12" style="edgeStyle=orthogonalEdgeStyle;rounded=0;orthogonalLoop=1;jettySize=auto;html=1;" edge="1" parent="1" source="wWI_pdkl9tOV192v9g_S-14">
          <mxGeometry relative="1" as="geometry">
            <mxPoint x="320" y="400" as="targetPoint" />
          </mxGeometry>
        </mxCell>
        <mxCell id="wWI_pdkl9tOV192v9g_S-13" style="edgeStyle=orthogonalEdgeStyle;rounded=0;orthogonalLoop=1;jettySize=auto;html=1;entryX=0.5;entryY=0;entryDx=0;entryDy=0;" edge="1" parent="1" source="wWI_pdkl9tOV192v9g_S-14" target="wWI_pdkl9tOV192v9g_S-23">
          <mxGeometry relative="1" as="geometry" />
        </mxCell>
        <mxCell id="wWI_pdkl9tOV192v9g_S-25" style="edgeStyle=orthogonalEdgeStyle;rounded=0;orthogonalLoop=1;jettySize=auto;html=1;exitX=1;exitY=0.5;exitDx=0;exitDy=0;" edge="1" parent="1" source="wWI_pdkl9tOV192v9g_S-14" target="wWI_pdkl9tOV192v9g_S-24">
          <mxGeometry relative="1" as="geometry" />
        </mxCell>
        <mxCell id="wWI_pdkl9tOV192v9g_S-27" style="edgeStyle=orthogonalEdgeStyle;rounded=0;orthogonalLoop=1;jettySize=auto;html=1;" edge="1" parent="1" source="wWI_pdkl9tOV192v9g_S-14" target="wWI_pdkl9tOV192v9g_S-26">
          <mxGeometry relative="1" as="geometry" />
        </mxCell>
        <mxCell id="wWI_pdkl9tOV192v9g_S-29" style="edgeStyle=orthogonalEdgeStyle;rounded=0;orthogonalLoop=1;jettySize=auto;html=1;entryX=0.5;entryY=0;entryDx=0;entryDy=0;" edge="1" parent="1" source="wWI_pdkl9tOV192v9g_S-14" target="wWI_pdkl9tOV192v9g_S-28">
          <mxGeometry relative="1" as="geometry" />
        </mxCell>
        <mxCell id="wWI_pdkl9tOV192v9g_S-31" style="edgeStyle=orthogonalEdgeStyle;rounded=0;orthogonalLoop=1;jettySize=auto;html=1;" edge="1" parent="1" source="wWI_pdkl9tOV192v9g_S-14" target="wWI_pdkl9tOV192v9g_S-30">
          <mxGeometry relative="1" as="geometry" />
        </mxCell>
        <mxCell id="wWI_pdkl9tOV192v9g_S-33" style="edgeStyle=orthogonalEdgeStyle;rounded=0;orthogonalLoop=1;jettySize=auto;html=1;" edge="1" parent="1" source="wWI_pdkl9tOV192v9g_S-14">
          <mxGeometry relative="1" as="geometry">
            <mxPoint x="1200" y="350" as="targetPoint" />
          </mxGeometry>
        </mxCell>
        <mxCell id="wWI_pdkl9tOV192v9g_S-14" value="&lt;div style=&quot;color: rgb(59, 59, 59); background-color: rgb(250, 250, 250); font-family: Menlo, Monaco, Consolas, &amp;quot;Ubuntu Mono&amp;quot;, &amp;quot;Source Code Pro&amp;quot;, monospace, &amp;quot;Droid Sans Mono&amp;quot;, &amp;quot;monospace&amp;quot;, monospace; font-size: 13px; line-height: 20px; white-space: pre;&quot;&gt;&lt;span style=&quot;color: #795e26;&quot;&gt;flatten_tables&lt;/span&gt;&lt;/div&gt;" style="whiteSpace=wrap;html=1;" vertex="1" parent="1">
          <mxGeometry x="120" y="320" width="120" height="60" as="geometry" />
        </mxCell>
        <mxCell id="wWI_pdkl9tOV192v9g_S-15" value="&lt;div style=&quot;color: rgb(59, 59, 59); background-color: rgb(250, 250, 250); font-family: Menlo, Monaco, Consolas, &amp;quot;Ubuntu Mono&amp;quot;, &amp;quot;Source Code Pro&amp;quot;, monospace, &amp;quot;Droid Sans Mono&amp;quot;, &amp;quot;monospace&amp;quot;, monospace; font-size: 13px; line-height: 20px; white-space: pre;&quot;&gt;&lt;span style=&quot;color: #795e26;&quot;&gt;find_agent_addresses&lt;/span&gt;&lt;/div&gt;" style="rounded=0;whiteSpace=wrap;html=1;" vertex="1" parent="1">
          <mxGeometry x="230" y="410" width="160" height="60" as="geometry" />
        </mxCell>
        <mxCell id="wWI_pdkl9tOV192v9g_S-16" value="&lt;div style=&quot;color: rgb(59, 59, 59); background-color: rgb(250, 250, 250); font-family: Menlo, Monaco, Consolas, &amp;quot;Ubuntu Mono&amp;quot;, &amp;quot;Source Code Pro&amp;quot;, monospace, &amp;quot;Droid Sans Mono&amp;quot;, &amp;quot;monospace&amp;quot;, monospace; font-size: 13px; line-height: 20px; white-space: pre;&quot;&gt;&lt;span style=&quot;color: #795e26;&quot;&gt;move_from_two_borrowers_to_one_borrower&lt;/span&gt;&lt;/div&gt;" style="rounded=0;whiteSpace=wrap;html=1;" vertex="1" parent="1">
          <mxGeometry x="250" y="500" width="300" height="60" as="geometry" />
        </mxCell>
        <mxCell id="wWI_pdkl9tOV192v9g_S-17" value="add_bulk_loan_flags" style="rounded=0;whiteSpace=wrap;html=1;" vertex="1" parent="1">
          <mxGeometry x="500" y="585" width="120" height="60" as="geometry" />
        </mxCell>
        <mxCell id="wWI_pdkl9tOV192v9g_S-18" value="&lt;div style=&quot;color: #3b3b3b;background-color: #fafafa;font-family: &#39;Menlo&#39;, &#39;Monaco&#39;, &#39;Consolas&#39;, &#39;Ubuntu Mono&#39;, &#39;Source Code Pro&#39;, monospace, &#39;Droid Sans Mono&#39;, &#39;monospace&#39;, monospace;font-weight: normal;font-size: 13px;line-height: 20px;white-space: pre;&quot;&gt;&lt;div&gt;&lt;span style=&quot;color: #795e26;&quot;&gt;join_agent_address&lt;/span&gt;&lt;/div&gt;&lt;div&gt;&lt;span style=&quot;color: #795e26;&quot;&gt;_with_transactions&lt;/span&gt;&lt;/div&gt;&lt;/div&gt;" style="rounded=0;whiteSpace=wrap;html=1;" vertex="1" parent="1">
          <mxGeometry x="737" y="810" width="120" height="60" as="geometry" />
        </mxCell>
        <mxCell id="wWI_pdkl9tOV192v9g_S-19" value="&lt;div style=&quot;color: #3b3b3b;background-color: #fafafa;font-family: &#39;Menlo&#39;, &#39;Monaco&#39;, &#39;Consolas&#39;, &#39;Ubuntu Mono&#39;, &#39;Source Code Pro&#39;, monospace, &#39;Droid Sans Mono&#39;, &#39;monospace&#39;, monospace;font-weight: normal;font-size: 13px;line-height: 20px;white-space: pre;&quot;&gt;&lt;div&gt;&lt;span style=&quot;color: #795e26;&quot;&gt;add_addresses&lt;/span&gt;&lt;/div&gt;&lt;/div&gt;" style="rounded=0;whiteSpace=wrap;html=1;" vertex="1" parent="1">
          <mxGeometry x="790" y="890" width="150" height="60" as="geometry" />
        </mxCell>
        <mxCell id="wWI_pdkl9tOV192v9g_S-20" value="&lt;div style=&quot;color: #3b3b3b;background-color: #fafafa;font-family: &#39;Menlo&#39;, &#39;Monaco&#39;, &#39;Consolas&#39;, &#39;Ubuntu Mono&#39;, &#39;Source Code Pro&#39;, monospace, &#39;Droid Sans Mono&#39;, &#39;monospace&#39;, monospace;font-weight: normal;font-size: 13px;line-height: 20px;white-space: pre;&quot;&gt;&lt;div&gt;&lt;span style=&quot;color: #795e26;&quot;&gt;integrate_mannual_research_inputs&lt;/span&gt;&lt;/div&gt;&lt;/div&gt;" style="rounded=0;whiteSpace=wrap;html=1;" vertex="1" parent="1">
          <mxGeometry x="840" y="970" width="220" height="80" as="geometry" />
        </mxCell>
        <mxCell id="wWI_pdkl9tOV192v9g_S-21" value="&lt;div style=&quot;color: rgb(59, 59, 59); background-color: rgb(250, 250, 250); font-family: Menlo, Monaco, Consolas, &amp;quot;Ubuntu Mono&amp;quot;, &amp;quot;Source Code Pro&amp;quot;, monospace, &amp;quot;Droid Sans Mono&amp;quot;, &amp;quot;monospace&amp;quot;, monospace; font-size: 13px; line-height: 20px; white-space: pre;&quot;&gt;&lt;span style=&quot;color: #795e26;&quot;&gt;transforming_columns_of_final_parquet_file&lt;/span&gt;&lt;/div&gt;" style="rounded=0;whiteSpace=wrap;html=1;" vertex="1" parent="1">
          <mxGeometry x="80" y="650" width="290" height="60" as="geometry" />
        </mxCell>
        <mxCell id="wWI_pdkl9tOV192v9g_S-22" style="edgeStyle=orthogonalEdgeStyle;rounded=0;orthogonalLoop=1;jettySize=auto;html=1;entryX=0.345;entryY=-0.1;entryDx=0;entryDy=0;entryPerimeter=0;" edge="1" parent="1" source="wWI_pdkl9tOV192v9g_S-14" target="wWI_pdkl9tOV192v9g_S-21">
          <mxGeometry relative="1" as="geometry" />
        </mxCell>
        <mxCell id="wWI_pdkl9tOV192v9g_S-23" value="&lt;div style=&quot;color: #3b3b3b;background-color: #fafafa;font-family: &#39;Menlo&#39;, &#39;Monaco&#39;, &#39;Consolas&#39;, &#39;Ubuntu Mono&#39;, &#39;Source Code Pro&#39;, monospace, &#39;Droid Sans Mono&#39;, &#39;monospace&#39;, monospace;font-weight: normal;font-size: 13px;line-height: 20px;white-space: pre;&quot;&gt;&lt;div&gt;&lt;span style=&quot;color: #795e26;&quot;&gt;graph_based_&lt;/span&gt;&lt;/div&gt;&lt;div&gt;&lt;span style=&quot;color: #795e26;&quot;&gt;address_clustering&lt;/span&gt;&lt;/div&gt;&lt;/div&gt;" style="rounded=0;whiteSpace=wrap;html=1;" vertex="1" parent="1">
          <mxGeometry x="1030" y="1060" width="120" height="60" as="geometry" />
        </mxCell>
        <mxCell id="wWI_pdkl9tOV192v9g_S-24" value="&lt;div style=&quot;color: rgb(59, 59, 59); background-color: rgb(250, 250, 250); font-family: Menlo, Monaco, Consolas, &amp;quot;Ubuntu Mono&amp;quot;, &amp;quot;Source Code Pro&amp;quot;, monospace, &amp;quot;Droid Sans Mono&amp;quot;, &amp;quot;monospace&amp;quot;, monospace; font-size: 13px; line-height: 20px; white-space: pre;&quot;&gt;&lt;span style=&quot;color: #795e26;&quot;&gt;drop_duplicate_&lt;/span&gt;&lt;/div&gt;&lt;div style=&quot;color: rgb(59, 59, 59); background-color: rgb(250, 250, 250); font-family: Menlo, Monaco, Consolas, &amp;quot;Ubuntu Mono&amp;quot;, &amp;quot;Source Code Pro&amp;quot;, monospace, &amp;quot;Droid Sans Mono&amp;quot;, &amp;quot;monospace&amp;quot;, monospace; font-size: 13px; line-height: 20px; white-space: pre;&quot;&gt;&lt;span style=&quot;color: #795e26;&quot;&gt;transactions&lt;/span&gt;&lt;/div&gt;" style="rounded=0;whiteSpace=wrap;html=1;" vertex="1" parent="1">
          <mxGeometry x="580" y="660" width="120" height="60" as="geometry" />
        </mxCell>
        <mxCell id="wWI_pdkl9tOV192v9g_S-26" value="&lt;div style=&quot;color: rgb(59, 59, 59); background-color: rgb(250, 250, 250); font-family: Menlo, Monaco, Consolas, &amp;quot;Ubuntu Mono&amp;quot;, &amp;quot;Source Code Pro&amp;quot;, monospace, &amp;quot;Droid Sans Mono&amp;quot;, &amp;quot;monospace&amp;quot;, monospace; font-size: 13px; line-height: 20px; white-space: pre;&quot;&gt;&lt;span style=&quot;color: #795e26;&quot;&gt;get_number_of_&lt;/span&gt;&lt;/div&gt;&lt;div style=&quot;color: rgb(59, 59, 59); background-color: rgb(250, 250, 250); font-family: Menlo, Monaco, Consolas, &amp;quot;Ubuntu Mono&amp;quot;, &amp;quot;Source Code Pro&amp;quot;, monospace, &amp;quot;Droid Sans Mono&amp;quot;, &amp;quot;monospace&amp;quot;, monospace; font-size: 13px; line-height: 20px; white-space: pre;&quot;&gt;&lt;span style=&quot;color: #795e26;&quot;&gt;transactions_flags&lt;/span&gt;&lt;/div&gt;" style="rounded=0;whiteSpace=wrap;html=1;" vertex="1" parent="1">
          <mxGeometry x="660" y="740" width="120" height="60" as="geometry" />
        </mxCell>
        <mxCell id="wWI_pdkl9tOV192v9g_S-28" value="&lt;div style=&quot;color: rgb(59, 59, 59); background-color: rgb(250, 250, 250); font-family: Menlo, Monaco, Consolas, &amp;quot;Ubuntu Mono&amp;quot;, &amp;quot;Source Code Pro&amp;quot;, monospace, &amp;quot;Droid Sans Mono&amp;quot;, &amp;quot;monospace&amp;quot;, monospace; font-size: 13px; line-height: 20px; white-space: pre;&quot;&gt;&lt;span style=&quot;color: #795e26;&quot;&gt;add_columns_&lt;/span&gt;&lt;/div&gt;&lt;div style=&quot;color: rgb(59, 59, 59); background-color: rgb(250, 250, 250); font-family: Menlo, Monaco, Consolas, &amp;quot;Ubuntu Mono&amp;quot;, &amp;quot;Source Code Pro&amp;quot;, monospace, &amp;quot;Droid Sans Mono&amp;quot;, &amp;quot;monospace&amp;quot;, monospace; font-size: 13px; line-height: 20px; white-space: pre;&quot;&gt;&lt;span style=&quot;color: #795e26;&quot;&gt;from_active_loan&lt;/span&gt;&lt;/div&gt;" style="rounded=0;whiteSpace=wrap;html=1;" vertex="1" parent="1">
          <mxGeometry x="1170" y="1100" width="120" height="60" as="geometry" />
        </mxCell>
        <mxCell id="wWI_pdkl9tOV192v9g_S-30" value="&lt;div style=&quot;color: rgb(59, 59, 59); background-color: rgb(250, 250, 250); font-family: Menlo, Monaco, Consolas, &amp;quot;Ubuntu Mono&amp;quot;, &amp;quot;Source Code Pro&amp;quot;, monospace, &amp;quot;Droid Sans Mono&amp;quot;, &amp;quot;monospace&amp;quot;, monospace; font-size: 13px; line-height: 20px; white-space: pre;&quot;&gt;&lt;span style=&quot;color: #795e26;&quot;&gt;add_tags_nod_status&lt;/span&gt;&lt;/div&gt;" style="rounded=0;whiteSpace=wrap;html=1;" vertex="1" parent="1">
          <mxGeometry x="1310" y="1160" width="120" height="60" as="geometry" />
        </mxCell>
        <mxCell id="wWI_pdkl9tOV192v9g_S-32" value="&lt;div style=&quot;color: #3b3b3b;background-color: #fafafa;font-family: &#39;Menlo&#39;, &#39;Monaco&#39;, &#39;Consolas&#39;, &#39;Ubuntu Mono&#39;, &#39;Source Code Pro&#39;, monospace, &#39;Droid Sans Mono&#39;, &#39;monospace&#39;, monospace;font-weight: normal;font-size: 13px;line-height: 20px;white-space: pre;&quot;&gt;&lt;div&gt;&lt;span style=&quot;color: #795e26;&quot;&gt;transform_columns&lt;/span&gt;&lt;/div&gt;&lt;/div&gt;" style="rounded=0;whiteSpace=wrap;html=1;" vertex="1" parent="1">
          <mxGeometry x="1450" y="1230" width="120" height="60" as="geometry" />
        </mxCell>
        <mxCell id="wWI_pdkl9tOV192v9g_S-34" style="edgeStyle=orthogonalEdgeStyle;rounded=0;orthogonalLoop=1;jettySize=auto;html=1;entryX=0.5;entryY=0;entryDx=0;entryDy=0;" edge="1" parent="1" source="wWI_pdkl9tOV192v9g_S-14" target="wWI_pdkl9tOV192v9g_S-32">
          <mxGeometry relative="1" as="geometry" />
        </mxCell>
      </root>
    </mxGraphModel>
  </diagram>
</mxfile>
